<svg width="72" height="72" viewBox="0 0 72 72" fill="none" xmlns="http://www.w3.org/2000/svg">
<rect width="72" height="72" rx="16" fill="#40BFFF"/>
<path fill-rule="evenodd" clip-rule="evenodd" d="M50.8284 33.1716C52.3905 34.7337 52.3905 37.2663 50.8284 38.8284L38.8284 50.8284C37.2663 52.3905 34.7337 52.3905 33.1716 50.8284L21.1716 38.8284C19.6095 37.2663 19.6095 34.7337 21.1716 33.1716L33.1716 21.1716C34.7337 19.6095 37.2663 19.6095 38.8284 21.1716L50.8284 33.1716ZM36 29.6569L29.6569 36L36 42.3431L42.3431 36L36 29.6569Z" fill="white"/>
<rect width="72" height="72" rx="16" fill="#5CC2DB"/>
<path d="M36.3636 32.447C34.8434 32.447 33.3382 32.7467 31.9338 33.329C30.5294 33.9113 29.2533 34.7647 28.1785 35.8406C27.1037 36.9165 26.2512 38.1938 25.6696 39.5995C25.088 41.0051 24.7888 42.5117 24.7891 44.0331C24.7894 47.0415 25.9593 49.9317 28.051 52.0921C30.1428 54.2525 32.9923 55.5136 35.9966 55.6085C36.1183 55.6085 36.24 55.6175 36.3636 55.6175C39.4335 55.6175 42.3777 54.397 44.5486 52.2246C46.7195 50.0522 47.9394 47.1057 47.9398 44.0331C47.9398 42.5116 47.6404 41.005 47.0587 39.5993C46.4769 38.1936 45.6242 36.9164 44.5492 35.8405C43.4743 34.7646 42.1981 33.9112 40.7936 33.329C39.3891 32.7467 37.8838 32.447 36.3636 32.447ZM30.9075 44.0331C30.9075 42.9531 31.2275 41.8973 31.827 40.9993C32.4265 40.1013 33.2786 39.4014 34.2756 38.9881C35.2726 38.5748 36.3696 38.4666 37.428 38.6773C38.4864 38.888 39.4586 39.4081 40.2216 40.1718C40.9846 40.9355 41.5043 41.9085 41.7148 42.9678C41.9253 44.0271 41.8173 45.1251 41.4043 46.1229C40.9914 47.1207 40.2921 47.9735 39.3948 48.5736C38.4976 49.1736 37.4427 49.4939 36.3636 49.4939C34.9171 49.492 33.5304 48.916 32.5076 47.8924C31.4848 46.8687 30.9094 45.4808 30.9075 44.0331Z" fill="white"/>
<path d="M55.4576 27.599C54.3799 21.6366 46.2119 17 36.2861 17C26.3602 17 18.1564 21.6581 17.1092 27.6384C17.0413 27.9499 17.0047 28.2674 17 28.5861C17 29.6101 17.4064 30.5921 18.1299 31.3162C18.8533 32.0402 19.8345 32.447 20.8576 32.447C21.5041 32.4473 22.1404 32.2848 22.7078 31.9746C23.2753 31.6643 23.7556 31.2162 24.1047 30.6715C26.5482 27.1152 31.1003 24.7235 36.3111 24.7235C41.3627 24.7235 45.7984 26.9701 48.2866 30.3455C48.7735 31.114 49.7186 32.447 51.7253 32.447C52.232 32.4472 52.7338 32.3475 53.2021 32.1536C53.6703 31.9597 54.0958 31.6753 54.4542 31.3168C54.8126 30.9583 55.0969 30.5326 55.2908 30.064C55.4848 29.5955 55.5846 29.0933 55.5846 28.5861C55.5847 28.253 55.5419 27.9212 55.4576 27.599Z" fill="#FFEC00"/>
</svg>
